<svg width="18" height="16" viewBox="0 0 18 16" fill="none" xmlns="http://www.w3.org/2000/svg">
<path d="M15.375 4.65C14.925 5.1 14.4083 5.44167 13.825 5.675C13.2417 5.90834 12.6583 6.025 12.075 6.025C11.4917 6.025 10.9167 5.91267 10.35 5.688C9.78333 5.46334 9.275 5.11734 8.825 4.65L6.95 2.775C6.7 2.525 6.41667 2.33767 6.1 2.213C5.78333 2.08834 5.45833 2.02567 5.125 2.025C4.79167 2.02434 4.46667 2.087 4.15 2.213C3.83333 2.339 3.55 2.52634 3.3 2.775L1.425 4.65L0 3.225L1.875 1.35C2.325 0.900003 2.83333 0.562669 3.4 0.338003C3.96667 0.113336 4.54167 0.000669608 5.125 2.94118e-06C5.70833 -0.000663725 6.27933 0.112003 6.838 0.338003C7.39667 0.564003 7.90067 0.901336 8.35 1.35L10.225 3.225C10.4917 3.49167 10.7833 3.68767 11.1 3.813C11.4167 3.93834 11.7417 4.00067 12.075 4C12.4083 3.99934 12.7377 3.937 13.063 3.813C13.3883 3.689 13.684 3.493 13.95 3.225L15.825 1.35L17.25 2.775L15.375 4.65ZM15.375 9.65C14.925 10.1 14.4127 10.4377 13.838 10.663C13.2633 10.8883 12.6837 11.0007 12.099 11C11.5143 10.9993 10.9353 10.887 10.362 10.663C9.78867 10.439 9.27633 10.1013 8.825 9.65L6.95 7.775C6.7 7.525 6.41667 7.33767 6.1 7.213C5.78333 7.08834 5.45833 7.02567 5.125 7.025C4.79167 7.02434 4.46667 7.087 4.15 7.213C3.83333 7.339 3.55 7.52634 3.3 7.775L1.425 9.65L0 8.25L1.875 6.35C2.325 5.9 2.83333 5.56267 3.4 5.338C3.96667 5.11334 4.54167 5.00067 5.125 5C5.70833 4.99934 6.27933 5.112 6.838 5.338C7.39667 5.564 7.90067 5.90134 8.35 6.35L10.225 8.225C10.4917 8.49167 10.7833 8.68767 11.1 8.813C11.4167 8.93834 11.7417 9.00067 12.075 9C12.4083 8.99934 12.7377 8.937 13.063 8.813C13.3883 8.689 13.684 8.493 13.95 8.225L15.825 6.35L17.25 7.775L15.375 9.65ZM15.35 14.65C14.9 15.1 14.3917 15.4377 13.825 15.663C13.2583 15.8883 12.6833 16.0007 12.1 16C11.5167 15.9993 10.9377 15.887 10.363 15.663C9.78833 15.439 9.27567 15.1013 8.825 14.65L6.925 12.775C6.675 12.525 6.39167 12.3377 6.075 12.213C5.75833 12.0883 5.43333 12.0257 5.1 12.025C4.76667 12.0243 4.44167 12.087 4.125 12.213C3.80833 12.339 3.525 12.5263 3.275 12.775L1.4 14.65L0 13.25L1.875 11.35C2.325 10.9 2.83333 10.5627 3.4 10.338C3.96667 10.1133 4.54167 10.0007 5.125 10C5.70833 9.99934 6.27933 10.112 6.838 10.338C7.39667 10.564 7.90067 10.9013 8.35 11.35L10.225 13.225C10.4917 13.4917 10.7877 13.6877 11.113 13.813C11.4383 13.9383 11.7673 14.0007 12.1 14C12.4327 13.9993 12.7577 13.937 13.075 13.813C13.3923 13.689 13.684 13.493 13.95 13.225L15.825 11.35L17.225 12.775L15.35 14.65Z" fill="#F24822"/>
</svg>