<svg width="24" height="24" viewBox="0 0 24 24" fill="none" xmlns="http://www.w3.org/2000/svg">
<path d="M5 14C5 14.8667 5.175 15.6877 5.525 16.463C5.875 17.2383 6.375 17.9173 7.025 18.5C7.00833 18.4167 7 18.3417 7 18.275V18.05C7 17.5167 7.1 17.0167 7.3 16.55C7.5 16.0833 7.79167 15.6583 8.175 15.275L11 12.5L13.825 15.275C14.2083 15.6583 14.5 16.0833 14.7 16.55C14.9 17.0167 15 17.5167 15 18.05V18.275C15 18.3417 14.9917 18.4167 14.975 18.5C15.625 17.9167 16.125 17.2377 16.475 16.463C16.825 15.6883 17 14.8673 17 14C17 13.1667 16.846 12.379 16.538 11.637C16.23 10.895 15.784 10.2327 15.2 9.65C14.8667 9.86667 14.5167 10.0293 14.15 10.138C13.7833 10.2467 13.4083 10.3007 13.025 10.3C11.9917 10.3 11.096 9.95833 10.338 9.275C9.58 8.59167 9.14233 7.75 9.025 6.75C8.375 7.3 7.8 7.871 7.3 8.463C6.8 9.055 6.37933 9.655 6.038 10.263C5.69667 10.871 5.43833 11.4917 5.263 12.125C5.08767 12.7583 5 13.3833 5 14ZM11 15.3L9.575 16.7C9.39167 16.8833 9.25 17.0917 9.15 17.325C9.05 17.5583 9 17.8 9 18.05C9 18.5833 9.19567 19.0417 9.587 19.425C9.97833 19.8083 10.4493 20 11 20C11.5507 20 12.0213 19.8083 12.412 19.425C12.8027 19.0417 12.9987 18.5833 13 18.05C13 17.7833 12.95 17.5377 12.85 17.313C12.75 17.0883 12.6083 16.884 12.425 16.7L11 15.3ZM11 3V6.3C11 6.86667 11.196 7.34167 11.588 7.725C11.98 8.10833 12.459 8.3 13.025 8.3C13.325 8.3 13.6043 8.23767 13.863 8.113C14.1217 7.98833 14.3507 7.80067 14.55 7.55L15 7C16.2333 7.7 17.2083 8.675 17.925 9.925C18.6417 11.175 19 12.5333 19 14C19 16.2333 18.225 18.125 16.675 19.675C15.125 21.225 13.2333 22 11 22C8.76667 22 6.875 21.225 5.325 19.675C3.775 18.125 3 16.2333 3 14C3 11.85 3.72067 9.80833 5.162 7.875C6.60333 5.94167 8.54933 4.31667 11 3ZM21 11C20.7167 11 20.4793 10.904 20.288 10.712C20.0967 10.52 20.0007 10.2827 20 10C19.9993 9.71733 20.0953 9.48 20.288 9.288C20.4807 9.096 20.718 9 21 9C21.282 9 21.5197 9.096 21.713 9.288C21.9063 9.48 22.002 9.71733 22 10C21.998 10.2827 21.902 10.5203 21.712 10.713C21.522 10.9057 21.2847 11.0013 21 11ZM20 8V3H22V8H20Z" fill="#F24822"/>
</svg>